# xmcd
#
# Track frame offsets: 
#        150
#        12713
#        23874
#        35860
#        49692
#        59395
#        72253
#        81988
#        98792
#        113025
#        127952
#        138903
#        150641
#        163283
#        175020
#        186042
#        198741
#        210801
#        226065
#        237179
#        255776
#        271325
#        284601
#        299258
#        312744
#
# Disc length: 4240 seconds
#
# Revision: 0
# Processed by: cddbd v1.5PL3 Copyright (c) Steve Scherf et al.
# Submitted via: ExactAudioCopy v0.95a5
#
DISCID=68108e19
DTITLE=The Fabulous Thunderbirds - Masters And Publishing Controlled B
DTITLE=y Bruco Music
DYEAR=2000
DGENRE=Blues
TTITLE0=I Can't Tear It Up Enuff
TTITLE1=I Believe I'm In Love
TTITLE2=Extra Jimmies
TTITLE3=Wait On Time
TTITLE4=That's Enough Of That Stuff
TTITLE5=I'm Sorry
TTITLE6=Please Don't Lie To Me
TTITLE7=Tell Me Why
TTITLE8=Learn To Treat Me Right
TTITLE9=Low-Down Woman
TTITLE10=Walkin' To My Baby
TTITLE11=Lover's Crime
TTITLE12=Give Me All Your Lovin'
TTITLE13=Let Me In
TTITLE14=Tell Me Why
TTITLE15=I'm A Good man (If You Give Me A Chance)
TTITLE16=One's Too Many
TTITLE17=Poor Boy
TTITLE18=Jumpin' Bad
TTITLE19=In Orbit
TTITLE20=Pocket Rocket
TTITLE21=Last Call For Alcohol
TTITLE22=Found A New Love
TTITLE23=C-Boy's Blues
TTITLE24=Los Fabulosos Thunderbirds
EXTD=
EXTT0=
EXTT1=
EXTT2=
EXTT3=
EXTT4=
EXTT5=
EXTT6=
EXTT7=
EXTT8=
EXTT9=
EXTT10=
EXTT11=
EXTT12=
EXTT13=
EXTT14=
EXTT15=
EXTT16=
EXTT17=
EXTT18=
EXTT19=
EXTT20=
EXTT21=
EXTT22=
EXTT23=
EXTT24=
PLAYORDER=
